<svg fill="#ffffff" height="200px" width="200px" version="1.1" id="Layer_1" xmlns="http://www.w3.org/2000/svg" xmlns:xlink="http://www.w3.org/1999/xlink" viewBox="0 0 512 512" xml:space="preserve" stroke="#ffffff"><g id="SVGRepo_bgCarrier" stroke-width="0"></g><g id="SVGRepo_tracerCarrier" stroke-linecap="round" stroke-linejoin="round"></g><g id="SVGRepo_iconCarrier"> <g> <g> <path d="M298.667,42.667h-85.333C95.723,42.667,0,138.368,0,256s95.723,213.333,213.333,213.333h85.333 C416.299,469.333,512,373.632,512,256S416.299,42.667,298.667,42.667z M86.613,278.933c0.277,2.517,0.789,4.949,1.152,7.424 c0.704,4.992,1.451,9.984,2.496,14.848c0.619,2.859,1.451,5.632,2.176,8.427c1.152,4.395,2.304,8.747,3.712,13.013 c0.96,2.901,2.069,5.739,3.157,8.576c1.515,4.032,3.093,8.021,4.843,11.947c1.28,2.816,2.645,5.568,4.032,8.341 c1.899,3.755,3.883,7.467,5.995,11.115c1.557,2.667,3.136,5.291,4.8,7.893c2.283,3.563,4.672,7.019,7.168,10.432 c1.771,2.453,3.541,4.885,5.397,7.232c2.688,3.392,5.525,6.635,8.405,9.856c1.941,2.155,3.819,4.352,5.845,6.421 c3.179,3.285,6.549,6.357,9.92,9.429c1.557,1.408,2.965,2.965,4.565,4.331C92.075,395.861,42.667,331.584,42.667,256 S92.075,116.139,160.277,93.781c-1.6,1.365-3.008,2.923-4.565,4.331c-3.371,3.072-6.741,6.144-9.92,9.429 c-2.027,2.069-3.904,4.267-5.845,6.421c-2.88,3.221-5.717,6.464-8.384,9.835c-1.877,2.368-3.669,4.821-5.44,7.253 c-2.475,3.413-4.864,6.869-7.147,10.432c-1.664,2.603-3.243,5.227-4.8,7.893c-2.112,3.648-4.096,7.36-5.995,11.115 c-1.387,2.773-2.752,5.525-4.032,8.341c-1.749,3.925-3.328,7.915-4.843,11.947c-1.088,2.837-2.197,5.675-3.157,8.576 c-1.408,4.267-2.56,8.619-3.712,12.992c-0.725,2.816-1.557,5.589-2.176,8.448c-1.045,4.864-1.792,9.856-2.496,14.848 c-0.363,2.475-0.875,4.907-1.152,7.424c-0.811,7.531-1.28,15.189-1.28,22.933C85.333,263.744,85.803,271.403,86.613,278.933z"></path> </g> </g> </g></svg>